<svg height="800" width="800"
	xmlns="http://www.w3.org/2000/svg" viewBox="0 0 496.162 496.162" xml:space="preserve">
	<path style="fill:#d0e8ea" d="M248.077 0C111.072 0 .002 111.062.002 248.083c0 137.005 111.07 248.079 248.075 248.079 137.013 0 248.083-111.074 248.083-248.079C496.16 111.062 385.09 0 248.077 0"/>
	<path style="fill:#54890a" d="M24.024 354.704c39.875 83.651 125.216 141.458 224.053 141.458 98.783 0 184.071-57.727 223.983-141.286z"/>
	<g style="opacity:.5">
		<path style="fill:#f9f9f9" d="M404.774 55.78a249 249 0 0 0-18.621-13.82c-26.371-17.696-56.315-30.472-88.539-37.002-.987-.199-1.989-.344-2.983-.532C279.544 1.561 263.998 0 248.077 0c-19.884 0-39.193 2.406-57.723 6.824a247 247 0 0 0-19.746 5.581c-28.031 9.211-53.845 23.277-76.467 41.209-10.917 8.657-21.115 18.17-30.426 28.51a248.1 248.1 0 0 0-45.957 73.801c10.466 18.847 29.386 32.675 52.406 35.602 20.603 2.616 40.203-4.055 54.747-16.678 10.718 11.215 25.192 18.981 41.787 21.092a69.76 69.76 0 0 0 40.616-7.073c10.979 14.494 27.534 24.75 46.997 27.224 27.504 3.493 53.247-9.509 67.462-31.252 9.548 7.375 21.077 12.439 33.915 14.069 22.859 2.904 44.495-5.607 59.329-21.031 24.237-1.955 45.528-16.476 56.499-37.698-15.873-32.82-38.779-61.59-66.742-84.4"/>
	</g>
	<g style="opacity:.5">
		<path style="fill:#fff" d="M372.956 33.75c-5.661-3.305-11.43-6.45-17.366-9.307-14.016-6.751-28.781-12.195-44.113-16.234-.787-.21-1.568-.42-2.363-.62A247.6 247.6 0 0 0 261.275.356 252 252 0 0 0 248.078 0c-11.797 0-23.388.88-34.756 2.475-21.835 3.064-42.767 8.924-62.39 17.286-.957.406-1.883.861-2.831 1.282a246 246 0 0 0-25.224 12.898C95.488 49.988 71.473 71.13 52.095 96.083c-.712.906-1.438 1.794-2.135 2.712.91.367 1.859.654 2.785.987 5.905 31.172 31.986 55.818 65.136 58.396a71.7 71.7 0 0 0 41.352-9.303c12.003 14.333 29.516 24.034 49.628 25.599 28.422 2.204 54.196-12.439 67.707-35.483 10.176 7.1 22.271 11.717 35.537 12.75 23.617 1.836 45.405-7.995 59.865-24.577 26.853-3.489 49.43-21.942 58.442-47.253a249 249 0 0 0-57.456-46.161"/>
	</g>
	<path style="fill:#f9f9f9" d="M248.077 0c-74.669 0-141.58 33.039-187.063 85.242a76.4 76.4 0 0 0 12.012-2.077c12.555 23.021 36.967 38.639 65.037 38.639 18.728 0 35.789-7.012 48.825-18.483 13.044 11.472 30.104 18.483 48.833 18.483 32.117 0 59.383-20.488 69.635-49.082 12.271 9.031 27.374 14.433 43.776 14.433 23.885 0 45.062-11.354 58.603-28.904C364.579 21.923 308.898 0 248.077 0"/>
	<path style="fill:#3b5563" d="M402.479 242.192c-.94-10.064-4.965-17.592-11.651-21.777-5.922-3.699-13.473-4.541-22.446-2.494-10.565 2.414-17.344 10.061-17.26 19.478.068 9.001 6.449 16.303 15.852 18.174 1.852.367 3.68-.662 4.108-2.284.429-1.629-.712-3.248-2.548-3.611-7.245-1.438-10.526-7.253-10.573-12.378-.045-5.199 3.106-11.483 12.082-13.53 6.938-1.583 12.584-1.052 16.799 1.584 4.927 3.083 8.063 9.261 8.813 17.382.543 5.849-1.645 10.623-6.687 14.601-39.155 30.896-221.573-.509-223.417-.834-1.837-.314-3.657.742-4.04 2.379s.804 3.225 2.655 3.546c5.394.941 96.458 16.617 164.325 14.241 28.383-.991 52.719-5.141 65.014-14.846 6.672-5.263 9.694-11.866 8.974-19.631m-24.756 72.431c-31.397-28.964-208.27-7.448-215.79-6.514-1.874.233-3.19 1.76-2.945 3.412.252 1.648 1.974 2.827 3.841 2.57 50.226-6.216 185.846-17.493 209.93 4.728 2.854 2.632 3.886 5.627 3.151 9.15-1.277 6.082-4.131 10.531-8.04 12.546-3.313 1.699-7.544 1.771-12.57.21-6.38-1.981-8.155-6.736-7.688-10.523.459-3.718 3.32-7.766 8.668-8.416 1.874-.226 3.198-1.756 2.953-3.405-.237-1.652-1.936-2.808-3.825-2.578-7.826.949-13.694 6.495-14.598 13.798-.94 7.631 3.833 14.233 12.165 16.823q5.22 1.623 9.777 1.461c3.083-.107 5.937-.826 8.522-2.158 5.77-2.968 9.693-8.744 11.361-16.712 1.147-5.483-.506-10.326-4.912-14.392"/>
	<path style="fill:#3b5563" d="M474.233 254.712c-1.07-11.529-5.669-20.144-13.288-24.918-6.74-4.208-15.355-5.156-25.599-2.815-12.004 2.739-19.7 11.426-19.616 22.125.092 10.213 7.313 18.502 17.979 20.622 1.852.364 3.68-.662 4.116-2.287.429-1.626-.72-3.244-2.556-3.611-8.698-1.725-12.639-8.691-12.692-14.823-.053-6.216 3.711-13.732 14.43-16.181 8.209-1.875 14.918-1.232 19.944 1.913 5.86 3.665 9.571 10.952 10.458 20.522.49 5.218-1.162 9.54-5.034 13.212-17.137 16.242-74.523 17.11-131.841 16.609-79.933-.704-166.926-2.176-167.798-2.191-1.905-.073-3.458 1.293-3.512 2.96s1.431 3.045 3.32 3.076c.872.019 87.896 1.488 167.867 2.192 19.08.168 37.694.188 54.869-.413 38.008-1.332 68.946-5.685 82.082-18.136 5.197-4.93 7.514-10.94 6.871-17.856"/>
	<path style="fill:#351f0d" d="m161.627 168.418-15.187-8.255c-49.697 64.065-47.181 263.973-47.181 263.973l9.303 7.345 8.309-5.145c-9.647-13.5 9.342-253.836 44.756-257.918"/>
	<path style="fill:#68b147" d="M301.998 228.1c-70.53-52.907-146.147-76.467-146.147-76.467 50.7 52.999 108.583 96.415 108.583 96.415 61.219 35.22 37.564-19.948 37.564-19.948"/>
	<path style="fill:#86c06d" d="M155.851 151.633c50.7 52.999 108.583 96.415 108.583 96.415 27.236 15.672 37.672 13.454 40.869 6.163 3.994-9.1-149.452-102.578-149.452-102.578"/>
	<path style="fill:#68b147" d="M154.374 156.522c32.155-60.443 124.741-69.444 124.741-69.444-97.727-92.59-124.741 69.444-124.741 69.444"/>
	<path style="fill:#86c06d" d="M154.374 156.522c32.155-60.443 124.741-69.444 124.741-69.444-86.16-52.72-124.741 69.444-124.741 69.444"/>
	<path style="fill:#68b147" d="M158.038 148.814s136.769-71.949 209.938 5.546c0 0-51.19-117.599-209.938-5.546"/>
	<path style="fill:#86c06d" d="M158.038 148.814s133.602-43.994 209.938 5.546c0 0-56.086-77.625-209.938-5.546"/>
	<path style="fill:#68b147" d="M158.375 153.423c163.543-13.216 203.294 44.506 204.707 46.643-56.539-90.277-204.707-46.643-204.707-46.643"/>
	<path style="fill:#86c06d" d="M158.375 153.423s135.077 11.671 204.751 46.71c0 0-46.875-63.621-204.751-46.71"/>
	<path style="fill:#f1e042" d="M158.604 142.453c-4.024-2.808-13.319 2.605-17.16 8.113-3.84 5.512-.765 9.027 3.26 11.828 4.023 2.808 7.475 3.84 11.314-1.664 3.841-5.513 6.611-15.474 2.586-18.277"/>
	<path style="fill:#fcee35" d="M175.191 149.204c-4.292-5.405-14.666-8.404-16.916-6.614-1.262 1.002-1.683 12.574 2.617 17.979 4.292 5.405 8.981 4.736 12.929 1.587 3.955-3.133 5.661-7.547 1.37-12.952"/>
	<path style="fill:#fcef57" d="M157.84 140.574c-1.997 0-11.399 10.979-11.399 19.589 0 8.614 5.103 11.598 11.399 11.598 6.288 0 11.392-2.984 11.392-11.598-.001-8.61-7.797-19.589-11.392-19.589"/>
</svg>